<?xml version="1.0" standalone="no"?>
<!DOCTYPE svg PUBLIC "-//W3C//DTD SVG 20010904//EN"
 "http://www.w3.org/TR/2001/REC-SVG-20010904/DTD/svg10.dtd">
<svg version="1.0" xmlns="http://www.w3.org/2000/svg"
 width="656.000000pt" height="656.000000pt" viewBox="0 0 656.000000 656.000000"
 preserveAspectRatio="xMidYMid meet">
<metadata>
Created by potrace 1.14, written by Peter Selinger 2001-2017
</metadata>
<g transform="translate(0.000000,656.000000) scale(0.100000,-0.100000)"
fill="#000000" stroke="none">
<path d="M160 5685 c0 -7 21 -45 36 -65 6 -8 25 -40 41 -70 17 -30 62 -111
102 -179 39 -68 71 -127 71 -131 0 -5 4 -10 8 -12 5 -1 22 -28 39 -58 53 -97
86 -154 108 -190 12 -19 25 -42 28 -50 4 -8 21 -37 37 -65 17 -27 34 -57 37
-65 4 -8 9 -17 13 -20 4 -3 13 -18 22 -35 8 -16 45 -81 81 -143 37 -62 67
-117 67 -123 0 -5 5 -9 10 -9 6 0 10 -4 10 -9 0 -8 178 -325 219 -391 17 -27
103 -173 121 -204 31 -57 91 -161 100 -176 10 -15 238 -412 288 -500 14 -25
45 -78 69 -118 24 -41 43 -77 43 -82 0 -5 3 -10 8 -12 4 -1 14 -16 23 -33 45
-85 144 -250 151 -253 4 -2 8 -12 8 -22 0 -9 6 -22 13 -28 7 -6 24 -33 37 -61
14 -28 29 -51 33 -51 5 0 6 -4 3 -9 -3 -5 1 -14 9 -21 8 -7 15 -19 15 -26 0
-8 5 -14 10 -14 6 0 10 -4 10 -9 0 -9 49 -97 89 -161 8 -14 16 -27 16 -30 0
-3 8 -16 17 -30 30 -46 69 -115 75 -132 3 -10 9 -18 14 -18 5 0 9 -4 9 -10 0
-8 68 -131 111 -200 24 -40 126 -219 139 -245 8 -16 17 -32 21 -35 4 -4 155
-265 231 -400 11 -19 24 -39 28 -45 7 -10 52 -89 94 -167 11 -21 23 -38 28
-38 4 0 8 -9 8 -19 0 -11 3 -21 8 -23 6 -3 160 -266 171 -293 2 -5 7 -12 10
-15 3 -3 17 -25 30 -50 13 -25 31 -53 40 -64 9 -10 15 -20 13 -22 -4 -6 89
-164 96 -164 4 0 38 55 77 123 38 67 72 124 75 127 3 3 14 24 25 47 11 24 23
43 28 43 4 0 7 4 7 9 0 4 29 59 65 120 36 62 65 116 65 121 0 4 3 10 8 12 6 2
78 126 170 288 10 19 33 59 51 88 17 29 31 57 31 62 0 6 5 10 10 10 6 0 10 4
10 9 0 5 21 45 46 88 26 43 57 96 69 118 12 22 61 107 108 189 48 82 87 151
87 152 0 2 16 28 35 58 19 29 31 56 28 60 -4 3 -2 6 4 6 9 0 23 24 34 55 1 6
11 19 21 29 10 11 18 25 18 32 0 7 4 14 9 16 5 2 17 20 27 40 11 21 80 142
154 270 74 128 140 242 146 253 6 11 35 61 64 110 29 50 60 104 70 120 9 17
49 86 89 153 39 68 71 127 71 132 0 6 5 10 10 10 6 0 10 4 10 9 0 5 63 118
140 251 77 134 140 247 140 252 0 4 5 8 10 8 6 0 10 4 10 10 0 5 13 31 29 58
15 26 39 68 53 93 14 24 49 85 78 134 29 50 66 115 83 145 17 30 57 99 89 153
32 53 58 100 58 103 0 3 8 18 19 32 10 15 31 50 45 77 15 28 36 64 46 80 10
17 28 47 39 67 36 66 46 83 51 88 3 3 11 16 17 30 7 14 26 48 43 75 17 28 35
61 41 75 6 13 14 27 18 30 4 3 21 30 38 60 17 30 79 138 137 239 58 101 106
185 106 186 0 2 18 33 40 69 22 36 40 70 40 75 0 5 7 14 15 21 24 20 2 27 -54
20 -27 -3 -58 -3 -70 2 -13 4 -21 3 -21 -3 0 -6 -5 -7 -11 -4 -6 4 -34 7 -62
6 -29 -1 -63 -1 -77 0 -14 0 -32 0 -40 0 -53 -4 -111 -2 -120 4 -5 3 -10 1
-10 -5 0 -6 -5 -8 -11 -5 -9 6 -36 7 -119 4 -8 0 -93 1 -188 2 -95 1 -175 -1
-178 -4 -3 -3 -19 -1 -35 3 -16 5 -31 5 -34 0 -3 -5 -18 -5 -33 -2 -15 4 -40
6 -57 5 -56 -6 -124 -5 -135 2 -5 3 -10 1 -10 -5 0 -6 -5 -8 -11 -5 -6 4 -34
7 -62 6 -122 -3 -147 -2 -156 3 -5 4 -12 2 -16 -3 -3 -6 -12 -8 -20 -5 -17 7
-405 11 -405 4 0 -6 -87 -3 -98 4 -15 9 -50 -30 -87 -99 -21 -38 -41 -74 -45
-80 -4 -5 -17 -27 -29 -47 -32 -58 -55 -98 -88 -153 -16 -27 -32 -57 -36 -65
-4 -8 -16 -28 -27 -45 -11 -16 -26 -43 -35 -60 -8 -16 -24 -43 -35 -60 -10
-16 -26 -43 -34 -60 -18 -36 -59 -108 -66 -115 -5 -5 -26 -41 -57 -100 -10
-19 -20 -37 -23 -40 -7 -7 -29 -43 -37 -60 -4 -8 -26 -48 -50 -88 -24 -41 -43
-78 -43 -83 0 -5 -3 -9 -7 -9 -5 0 -13 -10 -19 -23 -10 -23 -232 -408 -265
-462 -10 -16 -22 -37 -26 -45 -4 -8 -19 -36 -34 -62 -15 -25 -25 -49 -22 -52
4 -3 2 -6 -3 -6 -5 1 -21 26 -37 58 -15 31 -38 75 -52 97 -14 22 -31 52 -37
68 -7 15 -16 27 -20 27 -4 0 -8 4 -8 10 0 5 -14 33 -31 62 -35 58 -58 98 -97
168 -14 25 -45 78 -69 118 -24 41 -43 76 -43 80 0 3 -6 13 -14 21 -7 9 -26 41
-42 71 -16 30 -32 57 -35 60 -3 3 -19 30 -36 60 -24 44 -151 265 -276 480 -11
19 -27 46 -34 60 -8 14 -27 48 -43 75 -17 28 -35 61 -42 75 -7 14 -15 27 -19
30 -3 3 -9 12 -12 20 -4 8 -17 31 -28 50 -12 19 -32 55 -45 79 -13 24 -24 41
-24 36 0 -4 -6 -2 -13 4 -8 6 -16 8 -20 5 -9 -9 -69 -10 -99 -3 -17 5 -28 4
-28 -2 0 -6 -5 -7 -11 -4 -9 6 -36 7 -119 4 -8 0 -93 1 -188 2 -95 1 -175 -1
-178 -4 -3 -3 -19 -1 -35 3 -16 5 -31 5 -34 0 -3 -5 -18 -5 -33 -2 -15 4 -40
6 -57 5 -56 -6 -124 -5 -135 2 -5 3 -10 1 -10 -5 0 -6 -5 -8 -11 -5 -6 4 -34
7 -62 6 -122 -3 -147 -2 -156 3 -5 4 -12 2 -16 -4 -4 -6 -11 -8 -16 -4 -8 5
-219 6 -471 3 -26 0 -52 2 -58 6 -5 3 -10 1 -10 -5 0 -6 -5 -8 -11 -5 -6 4
-34 7 -62 6 -29 -1 -63 -1 -77 0 -14 0 -32 0 -40 0 -53 -4 -111 -2 -120 4 -5
3 -10 4 -10 0z"/>
</g>
</svg>
